<?xml version="1.0" standalone="no"?><!DOCTYPE svg PUBLIC "-//W3C//DTD SVG 1.1//EN" "http://www.w3.org/Graphics/SVG/1.1/DTD/svg11.dtd"><svg t="1638953358636" class="icon" viewBox="0 0 1024 1024" version="1.1" xmlns="http://www.w3.org/2000/svg" p-id="2432" xmlns:xlink="http://www.w3.org/1999/xlink" width="16" height="16"><defs><style type="text/css"></style></defs><path d="M681.106286 433.980952C843.580952 433.980952 975.238095 566.076952 975.238095 728.990476c0 162.913524-131.657143 295.009524-294.131809 295.009524-162.425905 0-294.083048-132.096-294.083048-295.009524 0-162.913524 131.657143-295.009524 294.083048-295.009524z m98.011428-433.980952c49.005714 0 89.185524 37.64419 92.891429 85.430857l0.292571 7.216762v350.403048a342.503619 342.503619 0 0 0-88.210285-42.179048V92.647619a4.87619 4.87619 0 0 0-3.023239-4.486095l-1.950476-0.390095H141.897143a4.87619 4.87619 0 0 0-4.534857 2.974476L137.020952 92.647619v784.579048l96.402286-79.09181a44.324571 44.324571 0 0 1 52.711619-2.535619l4.632381 3.608381 74.264381 65.536 1.706667-1.170286c11.995429 27.160381 27.40419 52.46781 45.738666 75.385905l-24.478476 17.554286a44.324571 44.324571 0 0 1-50.224762 0.975238l-4.87619-3.705905-72.508953-64.024381-139.459047 114.444191a44.178286 44.178286 0 0 1-71.826286-28.379429L48.761905 970.361905v-877.714286C48.761905 43.885714 86.601143 3.949714 134.582857 0.292571L141.897143 0H779.215238z m-98.011428 521.752381c-113.517714 0-205.872762 92.647619-205.872762 207.238095s92.355048 207.238095 205.872762 207.238095c113.566476 0 205.872762-92.647619 205.872762-207.238095s-92.306286-207.238095-205.872762-207.238095z m0 59.001905c22.528 0 41.057524 18.432 43.78819 42.227809l0.341334 6.046476v49.249524h53.930666c22.479238 0 41.057524 18.432 43.788191 42.22781l0.341333 6.046476c0 24.624762-16.871619 44.909714-38.619429 47.88419l-5.510095 0.390096h-98.011428c-22.528 0-41.106286-18.432-43.788191-42.22781l-0.390095-6.046476v-97.52381c0-26.672762 19.797333-48.274286 44.129524-48.274285z m-313.490286 6.777904a337.529905 337.529905 0 0 0-25.84381 87.820191H289.01181a43.983238 43.983238 0 0 1-44.129524-43.885714c0-22.381714 16.822857-40.813714 38.570666-43.544381l5.558858-0.341334 78.652952-0.048762z m68.412952-199.143619c24.380952 0 44.129524 21.601524 44.129524 48.274286 0 24.624762-16.871619 44.909714-38.619428 47.884191l-5.510096 0.390095H288.963048c-24.380952 0-44.129524-21.601524-44.129524-48.274286 0-24.624762 16.822857-44.909714 38.570666-47.88419l5.558858-0.390096h147.065904z m147.065905-195.047619c24.380952 0 44.080762 21.601524 44.080762 48.274286 0 24.624762-16.822857 44.909714-38.521905 47.884191l-5.558857 0.390095H288.963048c-24.380952 0-44.129524-21.601524-44.129524-48.274286 0-24.624762 16.822857-44.909714 38.570666-47.88419l5.558858-0.390096h294.131809z" fill="#ffffff" p-id="2433"></path></svg>