<?xml version="1.0" standalone="no"?><!DOCTYPE svg PUBLIC "-//W3C//DTD SVG 1.1//EN" "http://www.w3.org/Graphics/SVG/1.1/DTD/svg11.dtd"><svg t="1638954023624" class="icon" viewBox="0 0 1024 1024" version="1.1" xmlns="http://www.w3.org/2000/svg" p-id="3936" xmlns:xlink="http://www.w3.org/1999/xlink" width="16" height="16"><defs><style type="text/css"></style></defs><path d="M512 0c282.7776 0 512 229.2224 512 512s-229.2224 512-512 512S0 794.7776 0 512 229.2224 0 512 0z m0 92.16a419.84 419.84 0 1 0 0 839.68 419.84 419.84 0 0 0 0-839.68zM512 716.8a51.2 51.2 0 1 1 0 102.4 51.2 51.2 0 0 1 0-102.4z m0-478.4128c89.6 0 159.8464 79.0528 159.8464 174.08 0 75.3152-44.1856 140.6464-107.1616 164.4544l-6.6048 2.2528v46.592a46.08 46.08 0 0 1-40.2944 45.7216l-5.7856 0.3584a46.08 46.08 0 0 1-45.7216-40.2944l-0.3584-5.7856v-85.2992a46.08 46.08 0 0 1 40.2944-45.7216L512 494.3872c36.096 0 67.6864-35.584 67.6864-81.92 0-46.3872-31.5904-81.92-67.6864-81.92-33.9968 0-64 31.488-67.3792 73.8304l-0.3072 8.0896a46.08 46.08 0 0 1-92.16 0c0-95.0272 70.2464-174.08 159.8464-174.08z" fill="#C0C3CC" p-id="3937"></path></svg>