<?xml version="1.0" standalone="no"?><!DOCTYPE svg PUBLIC "-//W3C//DTD SVG 1.1//EN" "http://www.w3.org/Graphics/SVG/1.1/DTD/svg11.dtd"><svg t="1638954031367" class="icon" viewBox="0 0 1075 1024" version="1.1" xmlns="http://www.w3.org/2000/svg" p-id="4124" xmlns:xlink="http://www.w3.org/1999/xlink" width="16.796875" height="16"><defs><style type="text/css"></style></defs><path d="M537.598656 0C833.021917 0 1075.197312 206.642683 1075.197312 465.406836c0 202.649093-152.06362 374.629463-372.735068 442.725294l-15.206362 4.454389c-41.983895 11.87837-63.539041 35.225512-92.00617 87.193382a46.745483 46.745483 0 0 1-63.283042 18.534353 46.335884 46.335884 0 0 1-18.585553-62.975842c37.068707-67.737431 71.679821-106.802933 135.98686-128.25568l12.390369-3.83999c191.538721-54.169465 320.1528-195.83951 320.152799-357.784706 0-204.08269-197.477906-372.581469-444.312489-372.581468-246.834583 0-444.312489 168.498779-444.312489 372.581468 0 147.86523 104.498939 281.087297 264.191339 340.581549l14.182365 5.068787c46.387084 15.718361 82.687793 41.318297 107.417331 76.799808a46.284684 46.284684 0 0 1-11.77597 64.614239 46.796683 46.796683 0 0 1-61.235047-7.116783l-3.635191-4.607988c-12.799968-18.278354-32.511919-32.204719-60.774248-41.779096C138.086055 830.103525 0 659.761551 0 465.458036 0 206.642683 242.175395 0 537.598656 0zM289.791276 418.866153c30.975923 0 56.11506 25.036737 56.115059 55.85906 0 30.873523-25.139137 55.91026-56.115059 55.91026a56.01266 56.01266 0 0 1-56.11506-55.91026c0-30.822323 25.087937-55.80786 56.11506-55.80786z m233.778615 0c30.975923 0 56.11506 25.036737 56.11506 55.85906 0 30.873523-25.087937 55.91026-56.11506 55.91026A56.01266 56.01266 0 0 1 467.454831 474.725213c0-30.822323 25.087937-55.80786 56.11506-55.80786z m233.778616 0c31.027122 0 56.11506 25.036737 56.115059 55.85906 0 30.873523-25.087937 55.91026-56.115059 55.91026a56.01266 56.01266 0 0 1-56.11506-55.91026c0-30.822323 25.139137-55.80786 56.11506-55.80786z" fill="#C0C3CC" p-id="4125"></path></svg>