<?xml version="1.0" standalone="no"?><!DOCTYPE svg PUBLIC "-//W3C//DTD SVG 1.1//EN" "http://www.w3.org/Graphics/SVG/1.1/DTD/svg11.dtd"><svg t="1638954016911" class="icon" viewBox="0 0 1137 1024" version="1.1" xmlns="http://www.w3.org/2000/svg" p-id="3748" xmlns:xlink="http://www.w3.org/1999/xlink" width="17.765625" height="16"><defs><style type="text/css"></style></defs><path d="M1031.628945 0c55.8049 0 101.541025 44.370868 105.807456 100.744625l0.284428 8.53286V914.722515c0 57.454586-43.062497 104.612855-97.786567 108.936171l-8.305317 0.341314H50.236356A51.026499 51.026499 0 0 1 0.006258 972.177101c0-26.394978 19.170491-48.182212 43.972668-51.367813l6.25743-0.3982h981.392589c2.275429 0 4.323315-1.479029 5.119716-3.526915l0.455086-2.275429V109.33437a5.745459 5.745459 0 0 0-3.413144-5.290372l-2.161658-0.455086H106.098142a5.574801 5.574801 0 0 0-5.119716 3.526915l-0.455086 2.275429v172.534415c0 28.613521-22.526749 51.766013-50.286984 51.766013a50.798956 50.798956 0 0 1-49.831898-45.28104L0.006258 281.868785V109.277485C0.006258 51.822899 43.068754 4.66463 97.792825 0.341314L106.098142 0h925.530803zM155.304297 403.831787l4.607744 5.119716 159.166268 201.375479c13.538803 17.065719 14.847175 40.957725 4.038887 59.445586l-4.038887 5.916116-159.166268 201.375479a49.263041 49.263041 0 0 1-70.652075 7.395145 52.903728 52.903728 0 0 1-11.206489-67.068274l3.982001-5.745459 133.226377-168.666185-133.226377-168.609299a52.960613 52.960613 0 0 1 2.218544-68.035332l5.005944-4.835287a49.149269 49.149269 0 0 1 65.987445 2.275429z m194.43542 0l4.66463 5.119716 159.109383 201.375479c13.538803 17.065719 14.904061 40.957725 4.095772 59.445586l-4.095772 5.916116-159.109383 201.375479a49.263041 49.263041 0 0 1-70.652075 7.395145 52.903728 52.903728 0 0 1-11.206489-67.068274l3.982001-5.745459 133.226377-168.666185L276.470899 474.370091a52.960613 52.960613 0 0 1 2.275429-68.035332l5.005944-4.835287a49.149269 49.149269 0 0 1 65.987445 2.275429z m320.494195-100.005111l3.982001 5.005944 84.873507 119.687573 101.541025-122.702516a49.206155 49.206155 0 0 1 65.418588-10.011888l5.46103 4.209543a52.903728 52.903728 0 0 1 9.670574 67.295817l-4.038887 5.688573-96.02311 115.933115h57.795901c27.70335 0 50.230098 23.209377 50.230098 51.766013a51.254041 51.254041 0 0 1-43.972668 51.424699l-6.25743 0.3982-82.427421-0.056886v69.059275h82.427421c27.70335 0 50.230098 23.209377 50.230098 51.766013a51.254041 51.254041 0 0 1-43.972668 51.367812l-6.25743 0.398201h-82.427421v63.313815c0 28.556636-22.469863 51.766013-50.173213 51.766013a50.798956 50.798956 0 0 1-49.888784-45.281039l-0.3982-6.484974v-63.313815H633.713274a51.026499 51.026499 0 0 1-50.286984-51.766013c0-26.394978 19.170491-48.182212 43.972668-51.367813l6.25743-0.3982h82.370535v-69.059275H633.713274a51.026499 51.026499 0 0 1-50.286984-51.766013c0-26.338092 19.170491-48.125326 43.972668-51.310927l6.25743-0.3982 43.858897-0.056886-84.418421-119.004944a52.789956 52.789956 0 0 1 10.92206-72.358647 49.206155 49.206155 0 0 1 66.214988 6.25743z" fill="#C0C3CC" p-id="3749"></path></svg>