<?xml version="1.0" standalone="no"?><!DOCTYPE svg PUBLIC "-//W3C//DTD SVG 1.1//EN" "http://www.w3.org/Graphics/SVG/1.1/DTD/svg11.dtd"><svg t="1638954036412" class="icon" viewBox="0 0 1024 1024" version="1.1" xmlns="http://www.w3.org/2000/svg" p-id="4312" xmlns:xlink="http://www.w3.org/1999/xlink" width="16" height="16"><defs><style type="text/css"></style></defs><path d="M0.127968 408.473882c0-51.699075 39.926018-94.030892 90.60135-97.972307l7.67808-0.255936h131.243989a46.580355 46.580355 0 0 1 5.835341 92.648837l-5.835341 0.409498H98.407398a5.169908 5.169908 0 0 0-4.76041 3.122419l-0.409497 2.047489v516.990752c0 2.20105 1.330867 4.043789 3.173606 4.811597l2.047488 0.409498h827.185204a5.169908 5.169908 0 0 0 4.811597-3.173607l0.409498-2.047488V403.355161h-112.970158a46.580355 46.580355 0 0 1-46.170857-40.693826l-0.35831-5.835341a46.580355 46.580355 0 0 1 40.693826-46.170858l5.835341-0.35831h159.499325a46.580355 46.580355 0 0 1 46.170858 40.693826L1023.872032 356.774806v568.689828a98.27943 98.27943 0 0 1-90.60135 97.972307l-7.67808 0.307123H98.407398a98.27943 98.27943 0 0 1-97.972307-90.60135L0.127968 925.464634V408.473882z m272.674231-240.272732l4.453287-3.787853 206.796301-155.097226 1.023744-0.767808a46.631542 46.631542 0 0 1 3.583104-2.252237l-4.606848 3.020045A46.580355 46.580355 0 0 1 512 0h1.689178l2.764109 0.204749L512 0a46.785104 46.785104 0 0 1 21.856936 5.477031l0.35831 0.153561 1.023744 0.511872a46.631542 46.631542 0 0 1 4.146164 2.764109l0.511872 0.409498 206.796301 155.097226a46.580355 46.580355 0 0 1-50.931268 77.650987l-4.862784-3.173607-132.370107-99.251987V718.668333a46.580355 46.580355 0 0 1-92.700025 5.835341l-0.358311-5.835341L465.419645 139.63869 333.100725 238.890677a46.580355 46.580355 0 0 1-61.373457-4.862784l-3.787853-4.453287a46.580355 46.580355 0 0 1 4.862784-61.373456z" fill="#C0C3CC" p-id="4313"></path></svg>