<?xml version="1.0" standalone="no"?><!DOCTYPE svg PUBLIC "-//W3C//DTD SVG 1.1//EN" "http://www.w3.org/Graphics/SVG/1.1/DTD/svg11.dtd"><svg t="1638952837475" class="icon" viewBox="0 0 1077 1024" version="1.1" xmlns="http://www.w3.org/2000/svg" p-id="1772" xmlns:xlink="http://www.w3.org/1999/xlink" width="16.828125" height="16"><defs><style type="text/css"></style></defs><path d="M974.412739 0c54.433455 0 99.058109 40.959828 103.154092 93.075819l0.323367 7.868598v578.180302c0 53.139987-42.037718 96.632856-95.393282 100.674945l-8.084177 0.323367-388.687205-0.053894v148.263796h154.946716c27.055044 0 49.044004 21.450015 49.044004 47.858325a48.235586 48.235586 0 0 1-42.90003 47.427169l-6.143974 0.377261H279.550823a48.39727 48.39727 0 0 1-48.99011-47.80443c0-24.414213 18.701395-44.516865 42.846136-47.427169l6.143974-0.431156H487.745315v-196.068227c0-24.360318 18.701395-44.462971 42.846135-47.427168l6.143974-0.377262h437.73121a5.443346 5.443346 0 0 0 5.012189-3.233671l0.431156-2.101886V100.944417a5.335556 5.335556 0 0 0-3.341459-4.850506l-2.155781-0.431156H103.477459a5.443346 5.443346 0 0 0-5.066084 3.233671l-0.431156 2.047991v578.180302c0 2.209675 1.401257 4.095983 3.34146 4.904401l2.15578 0.431156h62.355948l209.434066-263.059103a49.798527 49.798527 0 0 1 64.619517-11.263953l5.066084 3.557038 89.03373 71.032964 135.652482-128.10725a130.694187 130.694187 0 0 1-16.383931-63.433838c0-73.835479 61.385847-133.766174 137.053738-133.766174 75.721786 0 137.053739 59.876801 137.053739 133.766174 0 73.889373-61.331952 133.766174-137.053739 133.766174-16.168353 0-31.636077-2.694725-46.025911-7.706915l-173.432533 163.83931a49.906316 49.906316 0 0 1-59.661222 6.467341l-5.389451-3.772616-84.021541-66.990876-193.265713 242.848662a49.259582 49.259582 0 0 1-32.282811 18.054661l-6.413447 0.431156H103.477459c-54.433455 0-99.004215-41.013722-103.100197-93.075819L0 679.070825V100.944417C0 47.858325 42.037718 4.311561 95.393283 0.323367L103.477459 0h870.93528z m-184.103646 255.082715c-21.557804 0-39.07352 17.030665-39.073519 38.103419 0 21.072753 17.515716 38.157313 39.073519 38.157313 21.557804 0 39.07352-17.08456 39.07352-38.157313a38.588469 38.588469 0 0 0-39.07352-38.103419z" fill="#C0C3CC" p-id="1773"></path></svg>