<?xml version="1.0" standalone="no"?><!DOCTYPE svg PUBLIC "-//W3C//DTD SVG 1.1//EN" "http://www.w3.org/Graphics/SVG/1.1/DTD/svg11.dtd"><svg t="1638954004251" class="icon" viewBox="0 0 1024 1024" version="1.1" xmlns="http://www.w3.org/2000/svg" p-id="3560" xmlns:xlink="http://www.w3.org/1999/xlink" width="16" height="16"><defs><style type="text/css"></style></defs><path d="M724.326038 524.543738C907.161146 614.194893 1023.999488 786.329207 1023.999488 977.663511c0 25.599987-20.99199 46.335977-46.796777 46.335977a46.591977 46.591977 0 0 1-46.796776-46.335977c0-154.726323-95.539152-295.526252-247.654276-370.175815a46.079977 46.079977 0 0 1-21.14559-62.003169 47.001576 47.001576 0 0 1 62.719969-20.991989zM511.999744 0c166.246317 0 301.055849 126.719937 301.055849 283.033458 0 156.262322-134.809533 282.982259-301.055849 282.982259-14.028793 0-27.903986-0.8704-41.420779-2.662399-211.967894 22.323189-376.985412 199.3215-376.985412 414.310193 0 25.599987-20.99199 46.335977-46.796776 46.335977A46.591977 46.591977 0 0 1 0 977.663511c0-214.527893 134.399933-398.131001 324.607838-473.190163C255.436672 452.607774 210.943895 372.735814 210.943895 283.033458 210.943895 126.719937 345.804627 0 511.999744 0z m0 92.620754c-115.609542 0-207.411096 86.323157-207.411096 190.412704 0 92.006354 71.833564 170.188715 168.447915 187.033507a510.822145 510.822145 0 0 1 68.607966-1.177599c2.918399 0.1024 5.785597 0.512 8.550396 1.177599 96.972752-16.383992 169.215915-94.719953 169.215915-187.033507 0-104.089548-91.801554-190.412705-207.411096-190.412704z" fill="#C0C3CC" p-id="3561"></path></svg>