<?xml version="1.0" encoding="UTF-8"?>
<svg width="18px" height="16px" viewBox="0 0 18 16" version="1.1" xmlns="http://www.w3.org/2000/svg" xmlns:xlink="http://www.w3.org/1999/xlink">
    <!-- Generator: Sketch 64 (93537) - https://sketch.com -->
    <title>编组 8</title>
    <desc>Created with Sketch.</desc>
    <g id="页面-1" stroke="none" stroke-width="1" fill="none" fill-rule="evenodd">
        <g id="在线检测" transform="translate(-178.000000, -122.000000)" fill="#FFFFFF" fill-rule="nonzero">
            <g id="编组-8" transform="translate(178.000000, 122.000000)">
                <path d="M17.0402477,0 C17.5053296,0 17.8823529,0.377023369 17.8823529,0.842105263 L17.8823529,15.1578947 C17.8823529,15.6229766 17.5053296,16 17.0402477,16 L0.842105263,16 C0.377023369,16 5.98351777e-15,15.6229766 5.98351777e-15,15.1578947 L5.98351777e-15,0.842105263 C5.98351777e-15,0.377023369 0.377023369,0 0.842105263,0 L17.0402477,0 Z M16.3663158,1.51578947 L1.51578947,1.51578947 L1.51578947,14.4842105 L16.3663158,14.4842105 L16.3663158,1.51578947 Z" id="矩形" transform="translate(8.941176, 8.000000) scale(1, -1) translate(-8.941176, -8.000000) "></path>
                <path d="M7.90724951,3.25770103 C8.18726056,2.94657765 8.6664697,2.92135611 8.97759308,3.20136716 L8.97759308,3.20136716 L13.6834754,7.43666128 L13.7547341,7.50990203 C14.0160159,7.81710554 13.992263,8.28542992 13.6834754,8.56333872 L13.6834754,8.56333872 L8.97759308,12.7986328 L8.896523,12.8622878 C8.58798483,13.0724549 8.16392631,13.0274954 7.90724951,12.742299 L7.90724951,12.742299 L7.84359458,12.6612289 C7.63342749,12.3526907 7.67838695,11.9286322 7.96358339,11.6719554 L7.96358339,11.6719554 L11.199996,8.75780463 L4.82689076,8.75789474 L4.73182205,8.75198966 C4.35812163,8.70522255 4.06899602,8.38637573 4.06899602,8 C4.06899602,7.58142629 4.40831705,7.24210526 4.82689076,7.24210526 L4.82689076,7.24210526 L11.199996,7.24180463 L7.96358339,4.3280446 L7.89177002,4.25410443 C7.65037608,3.96933263 7.65057272,3.54289747 7.90724951,3.25770103 Z" id="形状结合" transform="translate(9.001681, 8.000000) scale(-1, 1) translate(-9.001681, -8.000000) "></path>
            </g>
        </g>
    </g>
</svg>