<?xml version="1.0" standalone="no"?><!DOCTYPE svg PUBLIC "-//W3C//DTD SVG 1.1//EN" "http://www.w3.org/Graphics/SVG/1.1/DTD/svg11.dtd"><svg t="1639014925246" class="icon" viewBox="0 0 1316 1024" version="1.1" xmlns="http://www.w3.org/2000/svg" p-id="2984" width="19.27734375" height="15" xmlns:xlink="http://www.w3.org/1999/xlink"><defs><style type="text/css"></style></defs><path d="M1234.285714 0H45.714286A45.641143 45.641143 0 0 0 0 45.714286v914.285714c0 25.307429 20.48 45.714286 45.714286 45.714286h1188.571428c25.307429 0 45.714286-20.48 45.714286-45.714286V45.714286A45.641143 45.641143 0 0 0 1234.285714 0z m-57.124571 158.281143v744.594286H102.838857V158.281143l-39.424-30.72 56.173714-72.118857 61.147429 47.542857h918.674286l61.147428-47.542857 56.173715 72.118857-39.570286 30.72z m-77.750857-55.442286L640 460.068571 180.589714 102.838857l-61.147428-47.542857-56.173715 72.118857 39.497143 30.72L590.628571 537.6c28.891429 22.381714 69.266286 22.381714 98.157715 0l488.301714-379.318857 39.424-30.72-56.173714-72.118857-61.001143 47.396571z" p-id="2985" fill="#3A72FF"></path></svg>