<?xml version="1.0" standalone="no"?><!DOCTYPE svg PUBLIC "-//W3C//DTD SVG 1.1//EN" "http://www.w3.org/Graphics/SVG/1.1/DTD/svg11.dtd"><svg t="1639013117574" class="icon" viewBox="0 0 1024 1024" version="1.1" xmlns="http://www.w3.org/2000/svg" p-id="1488" xmlns:xlink="http://www.w3.org/1999/xlink" width="16" height="16"><defs><style type="text/css"></style></defs><path d="M912 452.032H286.976V172.032c0-38.656 31.36-70.016 70.016-70.016h310.016c38.592 0 70.016 31.36 70.016 69.952v85.056c0 5.504 4.48 9.984 9.984 9.984h70.016c5.504 0 9.984-4.48 9.984-9.984V171.968a160 160 0 0 0-160-160H356.992a160 160 0 0 0-160 160v280.064H112a39.936 39.936 0 0 0-40 40v480c0 22.08 17.92 39.936 40 39.936h800c22.144 0 40-17.856 40-39.936v-480a39.936 39.936 0 0 0-40-40z m-49.984 469.952H161.92V542.08H862.08v379.968z m-385.024-173.76v66.304c0 5.44 4.48 9.984 9.984 9.984h50.048c5.504 0 9.984-4.48 9.984-9.984V748.16a60.032 60.032 0 1 0-70.016 0z" p-id="1489" fill="#3A72FF"></path></svg>