<?xml version="1.0" standalone="no"?><!DOCTYPE svg PUBLIC "-//W3C//DTD SVG 1.1//EN" "http://www.w3.org/Graphics/SVG/1.1/DTD/svg11.dtd"><svg t="1638955791379" class="icon" viewBox="0 0 1152 1024" version="1.1" xmlns="http://www.w3.org/2000/svg" p-id="4688" xmlns:xlink="http://www.w3.org/1999/xlink" width="18" height="16"><defs><style type="text/css"></style></defs><path d="M1090.56 1024a53.888 53.888 0 0 0 53.888-53.888V53.888A53.888 53.888 0 0 0 1090.56 0H53.888A53.888 53.888 0 0 0 0 53.888v916.224c0 29.76 24.128 53.888 53.888 53.888H1090.56z m-43.136-97.024H97.024V97.024h950.4v829.952z" fill="#ffffff" p-id="4689"></path><path d="M506.048 815.488c17.92 19.904 48.64 21.568 68.48 3.648l301.184-271.104 4.608-4.672a48.512 48.512 0 0 0-4.608-67.392L574.592 204.8l-5.184-4.032a48.512 48.512 0 0 0-63.36 7.68l-4.032 5.12a48.512 48.512 0 0 0 7.68 63.36L716.8 463.488H308.928l-6.08 0.384a48.512 48.512 0 0 0 6.08 96.64H716.8l-207.104 186.496-4.608 4.736a48.512 48.512 0 0 0 0.96 63.744z" fill="#ffffff" p-id="4690"></path></svg>